<mxfile host="app.diagrams.net" agent="Mozilla/5.0 (Macintosh; Intel Mac OS X 10_15_7) AppleWebKit/537.36 (KHTML, like Gecko) Chrome/130.0.0.0 Safari/537.36" version="24.8.3">
  <diagram name="Page-1" id="qohc_eT8_qNwHsb9JeMf">
    <mxGraphModel dx="1306" dy="835" grid="1" gridSize="10" guides="1" tooltips="1" connect="1" arrows="1" fold="1" page="1" pageScale="1" pageWidth="827" pageHeight="1169" math="0" shadow="0">
      <root>
        <mxCell id="0" />
        <mxCell id="1" parent="0" />
        <mxCell id="C_T3ahLcrMBN9of1P4-y-82" value="" style="rounded=0;whiteSpace=wrap;html=1;dashed=1;fillColor=#d5e8d4;strokeColor=#82b366;" parent="1" vertex="1">
          <mxGeometry x="1220" y="440" width="310" height="220" as="geometry" />
        </mxCell>
        <mxCell id="C_T3ahLcrMBN9of1P4-y-43" value="" style="rounded=0;whiteSpace=wrap;html=1;dashed=1;fillColor=#d5e8d4;strokeColor=#82b366;" parent="1" vertex="1">
          <mxGeometry x="180" y="390" width="280" height="270" as="geometry" />
        </mxCell>
        <mxCell id="C_T3ahLcrMBN9of1P4-y-5" value="ac_dls_item_limit_config&lt;br&gt;数据项限额表" style="swimlane;fontStyle=0;childLayout=stackLayout;horizontal=1;startSize=30;horizontalStack=0;resizeParent=1;resizeParentMax=0;resizeLast=0;collapsible=1;marginBottom=0;whiteSpace=wrap;html=1;" parent="1" vertex="1">
          <mxGeometry x="261.75" y="20" width="200" height="270" as="geometry">
            <mxRectangle x="274" y="270" width="60" height="30" as="alternateBounds" />
          </mxGeometry>
        </mxCell>
        <mxCell id="C_T3ahLcrMBN9of1P4-y-6" value="id" style="text;strokeColor=none;fillColor=none;align=left;verticalAlign=middle;spacingLeft=4;spacingRight=4;overflow=hidden;points=[[0,0.5],[1,0.5]];portConstraint=eastwest;rotatable=0;whiteSpace=wrap;html=1;" parent="C_T3ahLcrMBN9of1P4-y-5" vertex="1">
          <mxGeometry y="30" width="200" height="30" as="geometry" />
        </mxCell>
        <mxCell id="C_T3ahLcrMBN9of1P4-y-27" value="&lt;span style=&quot;font-family: &amp;quot;Helvetica Neue&amp;quot;, Helvetica, Arial, &amp;quot;PingFang SC&amp;quot;, &amp;quot;Heiti SC&amp;quot;, &amp;quot;Hiragino Sans GB&amp;quot;, &amp;quot;Microsoft YaHei&amp;quot;, sans-serif;&quot;&gt;business_sys_id&lt;/span&gt;" style="text;strokeColor=none;fillColor=none;align=left;verticalAlign=middle;spacingLeft=4;spacingRight=4;overflow=hidden;points=[[0,0.5],[1,0.5]];portConstraint=eastwest;rotatable=0;whiteSpace=wrap;html=1;" parent="C_T3ahLcrMBN9of1P4-y-5" vertex="1">
          <mxGeometry y="60" width="200" height="30" as="geometry" />
        </mxCell>
        <mxCell id="C_T3ahLcrMBN9of1P4-y-7" value="item_type&lt;span style=&quot;white-space: pre;&quot;&gt;&#x9;&lt;/span&gt;varchar(10)" style="text;strokeColor=none;fillColor=none;align=left;verticalAlign=middle;spacingLeft=4;spacingRight=4;overflow=hidden;points=[[0,0.5],[1,0.5]];portConstraint=eastwest;rotatable=0;whiteSpace=wrap;html=1;" parent="C_T3ahLcrMBN9of1P4-y-5" vertex="1">
          <mxGeometry y="90" width="200" height="30" as="geometry" />
        </mxCell>
        <mxCell id="C_T3ahLcrMBN9of1P4-y-8" value="Item_code&lt;span style=&quot;white-space: pre;&quot;&gt;&#x9;&lt;/span&gt;varchar(30)" style="text;strokeColor=none;fillColor=none;align=left;verticalAlign=middle;spacingLeft=4;spacingRight=4;overflow=hidden;points=[[0,0.5],[1,0.5]];portConstraint=eastwest;rotatable=0;whiteSpace=wrap;html=1;" parent="C_T3ahLcrMBN9of1P4-y-5" vertex="1">
          <mxGeometry y="120" width="200" height="30" as="geometry" />
        </mxCell>
        <mxCell id="C_T3ahLcrMBN9of1P4-y-9" value="limit_value&lt;span style=&quot;white-space: pre;&quot;&gt;&#x9;&lt;/span&gt;int(11)" style="text;strokeColor=none;fillColor=none;align=left;verticalAlign=middle;spacingLeft=4;spacingRight=4;overflow=hidden;points=[[0,0.5],[1,0.5]];portConstraint=eastwest;rotatable=0;whiteSpace=wrap;html=1;" parent="C_T3ahLcrMBN9of1P4-y-5" vertex="1">
          <mxGeometry y="150" width="200" height="30" as="geometry" />
        </mxCell>
        <mxCell id="C_T3ahLcrMBN9of1P4-y-10" value="cts" style="text;strokeColor=none;fillColor=none;align=left;verticalAlign=middle;spacingLeft=4;spacingRight=4;overflow=hidden;points=[[0,0.5],[1,0.5]];portConstraint=eastwest;rotatable=0;whiteSpace=wrap;html=1;" parent="C_T3ahLcrMBN9of1P4-y-5" vertex="1">
          <mxGeometry y="180" width="200" height="30" as="geometry" />
        </mxCell>
        <mxCell id="C_T3ahLcrMBN9of1P4-y-11" value="uts" style="text;strokeColor=none;fillColor=none;align=left;verticalAlign=middle;spacingLeft=4;spacingRight=4;overflow=hidden;points=[[0,0.5],[1,0.5]];portConstraint=eastwest;rotatable=0;whiteSpace=wrap;html=1;" parent="C_T3ahLcrMBN9of1P4-y-5" vertex="1">
          <mxGeometry y="210" width="200" height="30" as="geometry" />
        </mxCell>
        <mxCell id="C_T3ahLcrMBN9of1P4-y-12" value="last_op_uid" style="text;strokeColor=none;fillColor=none;align=left;verticalAlign=middle;spacingLeft=4;spacingRight=4;overflow=hidden;points=[[0,0.5],[1,0.5]];portConstraint=eastwest;rotatable=0;whiteSpace=wrap;html=1;" parent="C_T3ahLcrMBN9of1P4-y-5" vertex="1">
          <mxGeometry y="240" width="200" height="30" as="geometry" />
        </mxCell>
        <mxCell id="C_T3ahLcrMBN9of1P4-y-13" value="ac_dls_limit_config&lt;br&gt;全局限额表" style="swimlane;fontStyle=0;childLayout=stackLayout;horizontal=1;startSize=30;horizontalStack=0;resizeParent=1;resizeParentMax=0;resizeLast=0;collapsible=1;marginBottom=0;whiteSpace=wrap;html=1;" parent="1" vertex="1">
          <mxGeometry x="20" y="20" width="200" height="210" as="geometry">
            <mxRectangle x="274" y="270" width="60" height="30" as="alternateBounds" />
          </mxGeometry>
        </mxCell>
        <mxCell id="C_T3ahLcrMBN9of1P4-y-14" value="id" style="text;strokeColor=none;fillColor=none;align=left;verticalAlign=middle;spacingLeft=4;spacingRight=4;overflow=hidden;points=[[0,0.5],[1,0.5]];portConstraint=eastwest;rotatable=0;whiteSpace=wrap;html=1;" parent="C_T3ahLcrMBN9of1P4-y-13" vertex="1">
          <mxGeometry y="30" width="200" height="30" as="geometry" />
        </mxCell>
        <mxCell id="C_T3ahLcrMBN9of1P4-y-15" value="item_type&lt;span style=&quot;white-space: pre;&quot;&gt;&#x9;&lt;/span&gt;varchar(10)" style="text;strokeColor=none;fillColor=none;align=left;verticalAlign=middle;spacingLeft=4;spacingRight=4;overflow=hidden;points=[[0,0.5],[1,0.5]];portConstraint=eastwest;rotatable=0;whiteSpace=wrap;html=1;" parent="C_T3ahLcrMBN9of1P4-y-13" vertex="1">
          <mxGeometry y="60" width="200" height="30" as="geometry" />
        </mxCell>
        <mxCell id="C_T3ahLcrMBN9of1P4-y-17" value="limit_value&lt;span style=&quot;white-space: pre;&quot;&gt;&#x9;&lt;/span&gt;int(11)" style="text;strokeColor=none;fillColor=none;align=left;verticalAlign=middle;spacingLeft=4;spacingRight=4;overflow=hidden;points=[[0,0.5],[1,0.5]];portConstraint=eastwest;rotatable=0;whiteSpace=wrap;html=1;" parent="C_T3ahLcrMBN9of1P4-y-13" vertex="1">
          <mxGeometry y="90" width="200" height="30" as="geometry" />
        </mxCell>
        <mxCell id="C_T3ahLcrMBN9of1P4-y-18" value="cts" style="text;strokeColor=none;fillColor=none;align=left;verticalAlign=middle;spacingLeft=4;spacingRight=4;overflow=hidden;points=[[0,0.5],[1,0.5]];portConstraint=eastwest;rotatable=0;whiteSpace=wrap;html=1;" parent="C_T3ahLcrMBN9of1P4-y-13" vertex="1">
          <mxGeometry y="120" width="200" height="30" as="geometry" />
        </mxCell>
        <mxCell id="C_T3ahLcrMBN9of1P4-y-19" value="uts" style="text;strokeColor=none;fillColor=none;align=left;verticalAlign=middle;spacingLeft=4;spacingRight=4;overflow=hidden;points=[[0,0.5],[1,0.5]];portConstraint=eastwest;rotatable=0;whiteSpace=wrap;html=1;" parent="C_T3ahLcrMBN9of1P4-y-13" vertex="1">
          <mxGeometry y="150" width="200" height="30" as="geometry" />
        </mxCell>
        <mxCell id="C_T3ahLcrMBN9of1P4-y-20" value="last_op_uid" style="text;strokeColor=none;fillColor=none;align=left;verticalAlign=middle;spacingLeft=4;spacingRight=4;overflow=hidden;points=[[0,0.5],[1,0.5]];portConstraint=eastwest;rotatable=0;whiteSpace=wrap;html=1;" parent="C_T3ahLcrMBN9of1P4-y-13" vertex="1">
          <mxGeometry y="180" width="200" height="30" as="geometry" />
        </mxCell>
        <mxCell id="C_T3ahLcrMBN9of1P4-y-26" value="" style="edgeStyle=orthogonalEdgeStyle;rounded=0;orthogonalLoop=1;jettySize=auto;html=1;" parent="1" source="C_T3ahLcrMBN9of1P4-y-23" target="C_T3ahLcrMBN9of1P4-y-25" edge="1">
          <mxGeometry relative="1" as="geometry" />
        </mxCell>
        <mxCell id="C_T3ahLcrMBN9of1P4-y-29" value="" style="edgeStyle=orthogonalEdgeStyle;rounded=0;orthogonalLoop=1;jettySize=auto;html=1;" parent="1" source="C_T3ahLcrMBN9of1P4-y-23" target="C_T3ahLcrMBN9of1P4-y-28" edge="1">
          <mxGeometry relative="1" as="geometry">
            <Array as="points">
              <mxPoint x="239" y="430" />
              <mxPoint x="543" y="430" />
            </Array>
          </mxGeometry>
        </mxCell>
        <mxCell id="C_T3ahLcrMBN9of1P4-y-23" value="全局&lt;br&gt;限额校验" style="rhombus;whiteSpace=wrap;html=1;rounded=1;" parent="1" vertex="1">
          <mxGeometry x="199" y="460" width="80" height="80" as="geometry" />
        </mxCell>
        <mxCell id="C_T3ahLcrMBN9of1P4-y-31" style="edgeStyle=orthogonalEdgeStyle;rounded=0;orthogonalLoop=1;jettySize=auto;html=1;" parent="1" source="C_T3ahLcrMBN9of1P4-y-25" target="C_T3ahLcrMBN9of1P4-y-28" edge="1">
          <mxGeometry relative="1" as="geometry" />
        </mxCell>
        <mxCell id="C_T3ahLcrMBN9of1P4-y-35" style="edgeStyle=orthogonalEdgeStyle;rounded=0;orthogonalLoop=1;jettySize=auto;html=1;" parent="1" source="C_T3ahLcrMBN9of1P4-y-25" target="C_T3ahLcrMBN9of1P4-y-34" edge="1">
          <mxGeometry relative="1" as="geometry" />
        </mxCell>
        <mxCell id="C_T3ahLcrMBN9of1P4-y-25" value="数据项&lt;br&gt;限额校验" style="rhombus;whiteSpace=wrap;html=1;rounded=1;" parent="1" vertex="1">
          <mxGeometry x="346.5" y="460" width="80" height="80" as="geometry" />
        </mxCell>
        <mxCell id="C_T3ahLcrMBN9of1P4-y-28" value="原业务逻辑" style="whiteSpace=wrap;html=1;rounded=1;fillColor=#f5f5f5;strokeColor=#666666;fontColor=#333333;" parent="1" vertex="1">
          <mxGeometry x="495" y="480" width="95" height="40" as="geometry" />
        </mxCell>
        <mxCell id="C_T3ahLcrMBN9of1P4-y-34" value="超限额异常" style="whiteSpace=wrap;html=1;rounded=1;" parent="1" vertex="1">
          <mxGeometry x="339" y="590" width="95" height="40" as="geometry" />
        </mxCell>
        <mxCell id="C_T3ahLcrMBN9of1P4-y-37" value="通过" style="text;html=1;align=center;verticalAlign=middle;whiteSpace=wrap;rounded=0;" parent="1" vertex="1">
          <mxGeometry x="233.5" y="430" width="60" height="30" as="geometry" />
        </mxCell>
        <mxCell id="C_T3ahLcrMBN9of1P4-y-38" value="通过" style="text;html=1;align=center;verticalAlign=middle;whiteSpace=wrap;rounded=0;" parent="1" vertex="1">
          <mxGeometry x="414" y="470" width="60" height="30" as="geometry" />
        </mxCell>
        <mxCell id="C_T3ahLcrMBN9of1P4-y-39" value="未通过" style="text;html=1;align=center;verticalAlign=middle;whiteSpace=wrap;rounded=0;" parent="1" vertex="1">
          <mxGeometry x="384" y="555" width="60" height="30" as="geometry" />
        </mxCell>
        <mxCell id="C_T3ahLcrMBN9of1P4-y-40" value="未通过" style="text;html=1;align=center;verticalAlign=middle;whiteSpace=wrap;rounded=0;" parent="1" vertex="1">
          <mxGeometry x="279" y="470" width="60" height="30" as="geometry" />
        </mxCell>
        <mxCell id="C_T3ahLcrMBN9of1P4-y-42" style="edgeStyle=orthogonalEdgeStyle;rounded=0;orthogonalLoop=1;jettySize=auto;html=1;" parent="1" source="C_T3ahLcrMBN9of1P4-y-41" target="C_T3ahLcrMBN9of1P4-y-23" edge="1">
          <mxGeometry relative="1" as="geometry" />
        </mxCell>
        <mxCell id="C_T3ahLcrMBN9of1P4-y-41" value="开始" style="ellipse;whiteSpace=wrap;html=1;fillColor=#f5f5f5;strokeColor=#666666;fontColor=#333333;" parent="1" vertex="1">
          <mxGeometry x="69" y="470" width="80" height="60" as="geometry" />
        </mxCell>
        <mxCell id="C_T3ahLcrMBN9of1P4-y-44" value="限额控制" style="text;html=1;align=center;verticalAlign=middle;whiteSpace=wrap;rounded=0;" parent="1" vertex="1">
          <mxGeometry x="210" y="620" width="83.5" height="30" as="geometry" />
        </mxCell>
        <mxCell id="C_T3ahLcrMBN9of1P4-y-45" value="ac_dls_limit_exceed_item&lt;br&gt;数据项超额表" style="swimlane;fontStyle=0;childLayout=stackLayout;horizontal=1;startSize=30;horizontalStack=0;resizeParent=1;resizeParentMax=0;resizeLast=0;collapsible=1;marginBottom=0;whiteSpace=wrap;html=1;" parent="1" vertex="1">
          <mxGeometry x="495" y="20" width="200" height="240" as="geometry">
            <mxRectangle x="274" y="270" width="60" height="30" as="alternateBounds" />
          </mxGeometry>
        </mxCell>
        <mxCell id="C_T3ahLcrMBN9of1P4-y-46" value="id" style="text;strokeColor=none;fillColor=none;align=left;verticalAlign=middle;spacingLeft=4;spacingRight=4;overflow=hidden;points=[[0,0.5],[1,0.5]];portConstraint=eastwest;rotatable=0;whiteSpace=wrap;html=1;" parent="C_T3ahLcrMBN9of1P4-y-45" vertex="1">
          <mxGeometry y="30" width="200" height="30" as="geometry" />
        </mxCell>
        <mxCell id="C_T3ahLcrMBN9of1P4-y-47" value="&lt;span style=&quot;font-family: &amp;quot;Helvetica Neue&amp;quot;, Helvetica, Arial, &amp;quot;PingFang SC&amp;quot;, &amp;quot;Heiti SC&amp;quot;, &amp;quot;Hiragino Sans GB&amp;quot;, &amp;quot;Microsoft YaHei&amp;quot;, sans-serif;&quot;&gt;business_sys_id&lt;/span&gt;" style="text;strokeColor=none;fillColor=none;align=left;verticalAlign=middle;spacingLeft=4;spacingRight=4;overflow=hidden;points=[[0,0.5],[1,0.5]];portConstraint=eastwest;rotatable=0;whiteSpace=wrap;html=1;" parent="C_T3ahLcrMBN9of1P4-y-45" vertex="1">
          <mxGeometry y="60" width="200" height="30" as="geometry" />
        </mxCell>
        <mxCell id="C_T3ahLcrMBN9of1P4-y-48" value="item_type&lt;span style=&quot;white-space: pre;&quot;&gt;&#x9;&lt;/span&gt;varchar(10)" style="text;strokeColor=none;fillColor=none;align=left;verticalAlign=middle;spacingLeft=4;spacingRight=4;overflow=hidden;points=[[0,0.5],[1,0.5]];portConstraint=eastwest;rotatable=0;whiteSpace=wrap;html=1;" parent="C_T3ahLcrMBN9of1P4-y-45" vertex="1">
          <mxGeometry y="90" width="200" height="30" as="geometry" />
        </mxCell>
        <mxCell id="C_T3ahLcrMBN9of1P4-y-49" value="Item_code&lt;span style=&quot;white-space: pre;&quot;&gt;&#x9;&lt;/span&gt;varchar(30)" style="text;strokeColor=none;fillColor=none;align=left;verticalAlign=middle;spacingLeft=4;spacingRight=4;overflow=hidden;points=[[0,0.5],[1,0.5]];portConstraint=eastwest;rotatable=0;whiteSpace=wrap;html=1;" parent="C_T3ahLcrMBN9of1P4-y-45" vertex="1">
          <mxGeometry y="120" width="200" height="30" as="geometry" />
        </mxCell>
        <mxCell id="C_T3ahLcrMBN9of1P4-y-50" value="current_value&lt;span style=&quot;white-space: pre;&quot;&gt;&#x9;&lt;/span&gt;int(11)" style="text;strokeColor=none;fillColor=none;align=left;verticalAlign=middle;spacingLeft=4;spacingRight=4;overflow=hidden;points=[[0,0.5],[1,0.5]];portConstraint=eastwest;rotatable=0;whiteSpace=wrap;html=1;" parent="C_T3ahLcrMBN9of1P4-y-45" vertex="1">
          <mxGeometry y="150" width="200" height="30" as="geometry" />
        </mxCell>
        <mxCell id="C_T3ahLcrMBN9of1P4-y-51" value="cts" style="text;strokeColor=none;fillColor=none;align=left;verticalAlign=middle;spacingLeft=4;spacingRight=4;overflow=hidden;points=[[0,0.5],[1,0.5]];portConstraint=eastwest;rotatable=0;whiteSpace=wrap;html=1;" parent="C_T3ahLcrMBN9of1P4-y-45" vertex="1">
          <mxGeometry y="180" width="200" height="30" as="geometry" />
        </mxCell>
        <mxCell id="C_T3ahLcrMBN9of1P4-y-52" value="uts" style="text;strokeColor=none;fillColor=none;align=left;verticalAlign=middle;spacingLeft=4;spacingRight=4;overflow=hidden;points=[[0,0.5],[1,0.5]];portConstraint=eastwest;rotatable=0;whiteSpace=wrap;html=1;" parent="C_T3ahLcrMBN9of1P4-y-45" vertex="1">
          <mxGeometry y="210" width="200" height="30" as="geometry" />
        </mxCell>
        <mxCell id="C_T3ahLcrMBN9of1P4-y-54" value="" style="rounded=0;whiteSpace=wrap;html=1;dashed=1;fillColor=#d5e8d4;strokeColor=#82b366;" parent="1" vertex="1">
          <mxGeometry x="770" y="440" width="150" height="220" as="geometry" />
        </mxCell>
        <mxCell id="C_T3ahLcrMBN9of1P4-y-58" style="edgeStyle=orthogonalEdgeStyle;rounded=0;orthogonalLoop=1;jettySize=auto;html=1;" parent="1" source="C_T3ahLcrMBN9of1P4-y-60" target="C_T3ahLcrMBN9of1P4-y-61" edge="1">
          <mxGeometry relative="1" as="geometry" />
        </mxCell>
        <mxCell id="C_T3ahLcrMBN9of1P4-y-59" style="edgeStyle=orthogonalEdgeStyle;rounded=0;orthogonalLoop=1;jettySize=auto;html=1;" parent="1" source="C_T3ahLcrMBN9of1P4-y-60" target="C_T3ahLcrMBN9of1P4-y-62" edge="1">
          <mxGeometry relative="1" as="geometry" />
        </mxCell>
        <mxCell id="C_T3ahLcrMBN9of1P4-y-60" value="数据项&lt;br&gt;是否超额" style="rhombus;whiteSpace=wrap;html=1;rounded=1;" parent="1" vertex="1">
          <mxGeometry x="806.5" y="460" width="80" height="80" as="geometry" />
        </mxCell>
        <mxCell id="C_T3ahLcrMBN9of1P4-y-74" style="edgeStyle=orthogonalEdgeStyle;rounded=0;orthogonalLoop=1;jettySize=auto;html=1;" parent="1" source="C_T3ahLcrMBN9of1P4-y-61" target="C_T3ahLcrMBN9of1P4-y-73" edge="1">
          <mxGeometry relative="1" as="geometry" />
        </mxCell>
        <mxCell id="C_T3ahLcrMBN9of1P4-y-61" value="原业务逻辑" style="whiteSpace=wrap;html=1;rounded=1;fillColor=#f5f5f5;strokeColor=#666666;fontColor=#333333;" parent="1" vertex="1">
          <mxGeometry x="955" y="480" width="95" height="40" as="geometry" />
        </mxCell>
        <mxCell id="C_T3ahLcrMBN9of1P4-y-62" value="超限额异常" style="whiteSpace=wrap;html=1;rounded=1;" parent="1" vertex="1">
          <mxGeometry x="799" y="590" width="95" height="40" as="geometry" />
        </mxCell>
        <mxCell id="C_T3ahLcrMBN9of1P4-y-64" value="否" style="text;html=1;align=center;verticalAlign=middle;whiteSpace=wrap;rounded=0;" parent="1" vertex="1">
          <mxGeometry x="874" y="470" width="60" height="30" as="geometry" />
        </mxCell>
        <mxCell id="C_T3ahLcrMBN9of1P4-y-65" value="是" style="text;html=1;align=center;verticalAlign=middle;whiteSpace=wrap;rounded=0;" parent="1" vertex="1">
          <mxGeometry x="827.25" y="550" width="60" height="30" as="geometry" />
        </mxCell>
        <mxCell id="C_T3ahLcrMBN9of1P4-y-67" style="edgeStyle=orthogonalEdgeStyle;rounded=0;orthogonalLoop=1;jettySize=auto;html=1;" parent="1" source="C_T3ahLcrMBN9of1P4-y-68" target="C_T3ahLcrMBN9of1P4-y-60" edge="1">
          <mxGeometry relative="1" as="geometry">
            <mxPoint x="659" y="500" as="targetPoint" />
          </mxGeometry>
        </mxCell>
        <mxCell id="C_T3ahLcrMBN9of1P4-y-68" value="开始" style="ellipse;whiteSpace=wrap;html=1;fillColor=#f5f5f5;strokeColor=#666666;fontColor=#333333;" parent="1" vertex="1">
          <mxGeometry x="650" y="470" width="80" height="60" as="geometry" />
        </mxCell>
        <mxCell id="C_T3ahLcrMBN9of1P4-y-70" value="方案1：实时校验" style="text;html=1;align=center;verticalAlign=middle;whiteSpace=wrap;rounded=0;" parent="1" vertex="1">
          <mxGeometry x="261.75" y="670" width="120" height="30" as="geometry" />
        </mxCell>
        <mxCell id="C_T3ahLcrMBN9of1P4-y-71" value="方案2：延迟校验" style="text;html=1;align=center;verticalAlign=middle;whiteSpace=wrap;rounded=0;" parent="1" vertex="1">
          <mxGeometry x="1080" y="670" width="120" height="30" as="geometry" />
        </mxCell>
        <mxCell id="C_T3ahLcrMBN9of1P4-y-72" value="方案1：实时取当前数据项的值，然后判断是否超额。缺点是对原接口性能影响较大。&lt;br&gt;方案2：从超额表中判断是否超额，逻辑简单，对原接口性能影响小。缺点是超额表有一定的延迟，或导致超额。" style="text;html=1;align=left;verticalAlign=middle;whiteSpace=wrap;rounded=0;" parent="1" vertex="1">
          <mxGeometry x="48.5" y="700" width="611.5" height="60" as="geometry" />
        </mxCell>
        <mxCell id="C_T3ahLcrMBN9of1P4-y-76" value="" style="edgeStyle=orthogonalEdgeStyle;rounded=0;orthogonalLoop=1;jettySize=auto;html=1;" parent="1" source="C_T3ahLcrMBN9of1P4-y-73" target="C_T3ahLcrMBN9of1P4-y-75" edge="1">
          <mxGeometry relative="1" as="geometry" />
        </mxCell>
        <mxCell id="C_T3ahLcrMBN9of1P4-y-73" value="权限数据" style="shape=cylinder3;whiteSpace=wrap;html=1;boundedLbl=1;backgroundOutline=1;size=15;" parent="1" vertex="1">
          <mxGeometry x="972.5" y="570" width="60" height="80" as="geometry" />
        </mxCell>
        <mxCell id="C_T3ahLcrMBN9of1P4-y-95" style="edgeStyle=orthogonalEdgeStyle;rounded=0;orthogonalLoop=1;jettySize=auto;html=1;" parent="1" source="C_T3ahLcrMBN9of1P4-y-75" target="C_T3ahLcrMBN9of1P4-y-88" edge="1">
          <mxGeometry relative="1" as="geometry" />
        </mxCell>
        <mxCell id="C_T3ahLcrMBN9of1P4-y-75" value="DTS" style="shape=process;whiteSpace=wrap;html=1;backgroundOutline=1;" parent="1" vertex="1">
          <mxGeometry x="1109" y="480" width="90" height="42.5" as="geometry" />
        </mxCell>
        <mxCell id="C_T3ahLcrMBN9of1P4-y-84" value="限额控制" style="text;html=1;align=center;verticalAlign=middle;whiteSpace=wrap;rounded=0;" parent="1" vertex="1">
          <mxGeometry x="806.5" y="630" width="83.5" height="30" as="geometry" />
        </mxCell>
        <mxCell id="C_T3ahLcrMBN9of1P4-y-85" value="数据项超额检查" style="text;html=1;align=center;verticalAlign=middle;whiteSpace=wrap;rounded=0;" parent="1" vertex="1">
          <mxGeometry x="1241" y="620" width="90" height="30" as="geometry" />
        </mxCell>
        <mxCell id="C_T3ahLcrMBN9of1P4-y-86" value="权限数据" style="shape=cylinder3;whiteSpace=wrap;html=1;boundedLbl=1;backgroundOutline=1;size=15;" parent="1" vertex="1">
          <mxGeometry x="512.5" y="570" width="60" height="80" as="geometry" />
        </mxCell>
        <mxCell id="C_T3ahLcrMBN9of1P4-y-87" style="edgeStyle=orthogonalEdgeStyle;rounded=0;orthogonalLoop=1;jettySize=auto;html=1;entryX=0.5;entryY=0;entryDx=0;entryDy=0;entryPerimeter=0;" parent="1" source="C_T3ahLcrMBN9of1P4-y-28" target="C_T3ahLcrMBN9of1P4-y-86" edge="1">
          <mxGeometry relative="1" as="geometry" />
        </mxCell>
        <mxCell id="C_T3ahLcrMBN9of1P4-y-93" style="edgeStyle=orthogonalEdgeStyle;rounded=0;orthogonalLoop=1;jettySize=auto;html=1;" parent="1" source="C_T3ahLcrMBN9of1P4-y-88" target="C_T3ahLcrMBN9of1P4-y-89" edge="1">
          <mxGeometry relative="1" as="geometry" />
        </mxCell>
        <mxCell id="C_T3ahLcrMBN9of1P4-y-88" value="全局&lt;br&gt;限额校验" style="rhombus;whiteSpace=wrap;html=1;rounded=1;" parent="1" vertex="1">
          <mxGeometry x="1260" y="461" width="80" height="80" as="geometry" />
        </mxCell>
        <mxCell id="C_T3ahLcrMBN9of1P4-y-94" style="edgeStyle=orthogonalEdgeStyle;rounded=0;orthogonalLoop=1;jettySize=auto;html=1;" parent="1" source="C_T3ahLcrMBN9of1P4-y-89" target="C_T3ahLcrMBN9of1P4-y-90" edge="1">
          <mxGeometry relative="1" as="geometry" />
        </mxCell>
        <mxCell id="C_T3ahLcrMBN9of1P4-y-89" value="数据项&lt;br&gt;限额校验" style="rhombus;whiteSpace=wrap;html=1;rounded=1;" parent="1" vertex="1">
          <mxGeometry x="1407.5" y="461" width="80" height="80" as="geometry" />
        </mxCell>
        <mxCell id="C_T3ahLcrMBN9of1P4-y-90" value="记录超额数据项" style="whiteSpace=wrap;html=1;rounded=1;" parent="1" vertex="1">
          <mxGeometry x="1400" y="590" width="95" height="40" as="geometry" />
        </mxCell>
        <mxCell id="C_T3ahLcrMBN9of1P4-y-91" value="未通过" style="text;html=1;align=center;verticalAlign=middle;whiteSpace=wrap;rounded=0;" parent="1" vertex="1">
          <mxGeometry x="1445" y="555" width="60" height="30" as="geometry" />
        </mxCell>
        <mxCell id="C_T3ahLcrMBN9of1P4-y-92" value="未通过" style="text;html=1;align=center;verticalAlign=middle;whiteSpace=wrap;rounded=0;" parent="1" vertex="1">
          <mxGeometry x="1340" y="470" width="60" height="30" as="geometry" />
        </mxCell>
      </root>
    </mxGraphModel>
  </diagram>
</mxfile>
